<svg xmlns="http://www.w3.org/2000/svg" viewBox="0 0 90 55">
  <defs>
    <linearGradient id="bowGrad" x1="0" y1="0" x2="0" y2="1">
      <stop offset="0%" stop-color="#E63333"/>
      <stop offset="100%" stop-color="#B81C1C"/>
    </linearGradient>
  </defs>
  <!-- Left wing -->
  <path d="M45,22 Q45,12 30,6 Q15,0 8,10 Q2,18 8,27 Q15,35 30,45 Q45,38 45,28 Z"
        fill="url(#bowGrad)"/>
  <!-- Right wing -->
  <path d="M45,22 Q45,12 60,6 Q75,0 82,10 Q88,18 82,27 Q75,35 60,45 Q45,38 45,28 Z"
        fill="url(#bowGrad)"/>
  <!-- Polka dots left -->
  <circle cx="25" cy="18" r="3" fill="#F5C6C6" opacity="0.35"/>
  <circle cx="32" cy="28" r="2.5" fill="#F5C6C6" opacity="0.3"/>
  <circle cx="20" cy="30" r="2" fill="#F5C6C6" opacity="0.25"/>
  <!-- Polka dots right -->
  <circle cx="65" cy="18" r="3" fill="#F5C6C6" opacity="0.35"/>
  <circle cx="58" cy="28" r="2.5" fill="#F5C6C6" opacity="0.3"/>
  <circle cx="70" cy="30" r="2" fill="#F5C6C6" opacity="0.25"/>
  <!-- Center knot -->
  <ellipse cx="45" cy="25" rx="6" ry="8" fill="#A01515"/>
  <!-- Knot highlight -->
  <ellipse cx="44" cy="23" rx="3" ry="4" fill="#C42020" opacity="0.5"/>
</svg>
